# xmcd CD database file
#
# Track frame offsets:
#	150
#	23047
#	48664
#	69383
#	93903
#	123064
#	143409
#	163086
#	188883
#	209649
#	237558
#	263062
#
# Disc length: 3827 seconds
#
# Revision: 0
# Processed by: cddbd v1.5.2PL0 Copyright (c) Steve Scherf et al.
# Submitted via: CDex 1.81
#
DISCID=a50ef10c
DTITLE=Enola Quintet - Yellow Magic Orchestra Jazz Covers
DYEAR=2013
DGENRE=Jazz
TTITLE0=Rydeen (TJ Mix)
TTITLE1=Tong Poo
TTITLE2=Cue (TJ Mix)
TTITLE3=Technopolis (TJ Mix)
TTITLE4=Kimi Ni Munekyun
TTITLE5=Shadows on the Ground (TJ Mix)
TTITLE6=Castalia
TTITLE7=Seoul Music (TJ Mix)
TTITLE8=U.T (TJ Mix)
TTITLE9=Perspective
TTITLE10=Silence of Time (TJ Mix)
TTITLE11=Behind the Mask (TJ Mix)
EXTD=YEAR: 2013
EXTT0=
EXTT1=
EXTT2=
EXTT3=
EXTT4=
EXTT5=
EXTT6=
EXTT7=
EXTT8=
EXTT9=
EXTT10=
EXTT11=
PLAYORDER=
